<?xml version="1.0" encoding="utf-8"?>
<!-- Generator: Adobe Illustrator 24.0.0, SVG Export Plug-In . SVG Version: 6.00 Build 0)  -->
<svg version="1.1" id="Layer_1" xmlns="http://www.w3.org/2000/svg" xmlns:xlink="http://www.w3.org/1999/xlink" x="0px" y="0px"
	 viewBox="0 0 3000 3000" style="enable-background:new 0 0 3000 3000;" xml:space="preserve">
<g>
	<path d="M2859.6,1558.9c-0.5,7.2-1.2,14.5-1.5,21.7c-4.8,127.2-29.8,250.4-71.6,370.4c-35.9,103.2-83.2,200.9-143.8,292
		c-45.2,68-97.2,130.5-154.1,189c-98.4,101.4-209.1,186.9-333.2,254.9c-110.4,60.4-226.5,106-349.2,133.4
		c-51.2,11.4-103.2,19.2-155.1,27c-64.9,9.8-130.5,12-196.1,10.1c-74.3-2.2-148.1-10.3-221-25.1c-109.2-22.1-214.3-56.8-315-104.5
		c-131.2-62.2-249.6-143-355-242.8c-55.5-52.5-106.5-109.2-152.2-170.6c-59.9-80.5-108.4-167.5-149.4-258.9
		c-42-93.5-75.1-190-95-290.6c-8.6-43.6-14.2-87.8-19.7-132c-6-48.1-7.9-96.6-7.2-145.1c1.1-68.7,6-137.1,17-205.1
		c21.4-131.1,63.2-255.6,119.8-375.4c52-110.1,116.3-212.2,197.6-303.2c69.1-77.4,146.8-145.3,231-205.8
		C807,325.8,916.1,268.2,1033,225.7c80.1-29.1,162-52.4,246.2-66c39.1-6.3,78.7-10.1,118.1-13.8c59.3-5.6,118.8-4.7,178.2-1.2
		c163.3,9.7,319.2,49,467.6,118.2c108.6,50.7,209.6,113,299.3,192.9c15.6,13.9,30.1,29.2,44.9,43.9c2.5,2.5,4.5,5.6,6.7,8.5
		c-0.4,0.6-0.8,1.2-1.2,1.8c-3.1-1.8-6.4-3.3-9.2-5.4c-27-20.4-53.8-41.1-81-61.3c-109.1-81.1-227.1-146.2-354.3-194.3
		c-71.3-27-144.4-47.6-219.5-61.5c-75.6-14-151.8-20.7-228.7-21.8c-53.7-0.8-107.2,1.5-160.4,7.9c-123.1,14.9-241.8,47.1-356.6,93.8
		c-132.4,53.9-252.3,128.5-361.6,220.4c-70.8,59.5-135.3,125-191.2,198.8c-44.7,59-83.4,121.7-117.3,187.4
		c-57.7,111.7-100.6,228.8-127,351.7c-10.5,48.8-18.5,98-21.4,147.9c-2.4,41.1-5.2,82.2-5.2,123.3c-0.1,61.2,5,122,13.6,182.7
		c20.5,144.4,66.7,280.6,130.6,411.3c43,87.9,93.9,170.8,156,246.4c123.6,150.6,273.1,269,447.8,355.3
		c105,51.9,215.1,89.1,330,111.6c49.7,9.7,99.8,16.3,150.3,20.6c61.4,5.3,122.7,5.4,184,0.8c171.5-12.9,335.9-53.1,491.6-127.3
		c110.6-52.7,212.8-118.2,305.4-198.6c103.8-90.1,195.4-191.1,269.3-307.4c44.6-70.3,81.6-144.5,112.1-221.9
		c34.8-88.2,60.9-178.9,77.9-272.3c10.7-58.5,18.6-117.2,23.3-176.4c0.7-8.2,2-16.4,3.1-24.6c0-0.3,0.7-0.6,2.2-1.9
		c1,15,2,29.1,3,43.1C2859.6,1545.2,2859.6,1552.1,2859.6,1558.9z"/>
	<path d="M2816.7,1505c0,18.4,1,36.9-0.2,55.3c-2.2,34.2-4.6,68.5-8.8,102.6c-7.6,62.4-21,123.6-38,184.1
		c-39.3,140-105.1,267.3-186,387.3c-47.4,70.3-99.5,136.8-159.7,196.6c-72.9,72.5-154.9,132.8-243.9,183.8
		c-99.9,57.3-204.1,105.1-314.7,138.4c-57.4,17.3-115.8,29.9-175.1,38.3c-50.9,7.2-102.1,12.3-153.5,12.3c-39.4,0-79,0.2-118.3-2
		c-34.4-2-68.8-6.5-103-11.1c-80.8-10.7-159.1-31.8-236.2-57.9c-125.9-42.5-241.2-105.1-348.3-183.2
		c-56.4-41.1-110.4-85.2-160.3-134c-93.2-91.3-169.2-195.4-229.8-310.8c-39.3-74.7-71.2-152.4-94.2-233.8
		c-17.2-60.9-29.8-122.9-38.5-185.5c-7.7-55-11.8-110.3-12.6-166c-0.7-52,1.2-103.8,6.7-155.4c6.5-61,17.1-121.3,30.9-181.1
		c38.6-167.1,111.6-318,214.2-455.1c92-123,200.8-228.2,329.1-312.6c119.7-78.8,248.6-137.3,387.9-171.8
		c52.2-12.9,105.1-22.4,158.5-28.8c55.2-6.6,110.5-10.1,166.2-10.4c59-0.3,117.8,2.6,176.3,10.3c134.8,17.6,264.2,54.1,387.4,111.8
		c94,44.1,179.8,101.2,259.8,167.4c146.6,121.3,262,267.1,344.4,438.7c44.2,92.1,77,188.2,96.6,288.4c9.2,47,16,94.5,21.8,142
		c4.8,39.9,5.2,80.2,2,120.4c-0.2,2.9-1,5.7-3,8.9c-0.7-2.7-1.8-5.4-2.1-8.2c-3-27.1-5.8-54.2-8.7-81.3
		c-5.7-54.2-14.9-107.9-26.4-161.2c-21.7-100.2-53.6-197.1-97.6-289.8c-58.5-123.3-134.3-235-228.7-333.8
		c-96.2-100.6-204.3-185.8-327.3-251.4c-81.7-43.6-168-75.7-257.4-99.5c-59-15.8-118.8-28.1-179.5-35c-69.6-8-139.3-10.4-209.4-7.7
		c-176.6,6.7-345.5,44.7-504.9,122.2c-119.9,58.4-228.4,133-324.4,225.7c-102.3,98.8-187,210.8-253.2,336.9
		c-47.5,90.4-81.1,185.8-103.4,285.2c-12.1,53.9-22.2,108.2-26.8,163.3c-3.3,40.3-5.6,80.6-7.3,121c-2,49.7,0.8,99.4,6.2,148.8
		c4,37,9.6,73.8,16.1,110.4c18.4,103.7,49.5,203.6,94.6,298.9c55.2,116.7,125.4,223.4,213.4,317.9
		c64.9,69.6,137.9,129.9,215.6,184.7c137.2,96.7,287.3,164.1,450.7,202.2c48.9,11.4,98.2,20.2,148,25.6c32.6,3.5,65.6,5.5,98.4,6.1
		c39.4,0.7,79,1.1,118.3-1.8c46.8-3.4,93.7-8.3,139.8-16.4c218.6-38.6,412.5-132.8,588.6-265.5c90.9-68.5,165.7-152.8,231.6-245.2
		c67.5-94.7,126.3-194.3,171-301.9c37.1-89.3,63.5-181.7,79.9-276.9c8.2-47.4,13.8-95.3,20.7-142.9c0.9-6,2-11.9,3.1-17.8
		C2814.5,1504.8,2815.6,1504.9,2816.7,1505z"/>
	<path d="M2656.3,1614.9c-0.7,14.4-0.8,28.9-2.2,43.3c-8.7,87.3-29.1,172.1-58.2,254.7c-44.8,126.9-111,241.7-196.5,345.5
		c-88.5,107.5-195.6,192.3-316.4,260.7c-74.5,42.2-151.7,78.5-233.1,105.4c-54.3,17.9-109.6,31.9-166.4,40.3
		c-66.7,9.8-133.7,13.7-201.1,11.2c-49.9-1.9-99.5-6.6-149-13.9c-69.7-10.4-138.1-25.9-204.7-48.8
		c-164.9-56.7-312.1-143.5-439.2-263C561.4,2229.8,469,2085,406.8,1920.7c-28.8-76-48.3-154.4-60.4-234.8
		c-10.5-69.3-14.9-139.1-12.6-209c6.7-196.2,57.4-380.1,156.5-550.2c43-73.8,93.4-142.1,151.4-204.7
		c69.9-75.4,148.8-140.3,234.6-196.9c110.4-72.8,230.4-122.6,359.5-150.4c46.9-10.1,94.3-16.8,142.1-21.3
		c49.8-4.7,99.7-6.6,149.7-5.4c55,1.4,109.8,6.3,164.2,15.4c98.2,16.4,192.5,45.5,283.1,86.5c128.6,58.2,242.8,137.2,340.8,239
		c86.7,89.9,159.2,190,214.3,302.3c39.9,81.2,68.3,166.3,85.2,255.2c11.9,62.6,18.2,125.7,17.1,189.5c-0.3,16.1-2.4,32.2-3.7,48.3
		c-1.1,0-2.3,0.1-3.4,0.1c-1.2-8.1-2.7-16.2-3.5-24.4c-4-39.9-7.1-80-11.9-119.9c-9.8-81.4-29.5-160.6-57.9-237.5
		C2506.8,980.6,2440,871.1,2357,771.1c-67.8-81.7-144.8-153.4-233-212.7c-72.2-48.6-149.2-88.1-230.5-119
		c-71.4-27.1-144.7-46.6-220.2-58.7c-68.5-11-137.4-15.8-206.7-14c-106.8,2.8-211.8,17.3-314.4,48
		C1021.1,454,903.9,519.5,796.6,603.8c-89,69.9-167.2,150-232.5,242.4c-88,124.5-149.3,261.1-181.7,410.4
		c-15.4,70.8-24.6,142.3-26.3,214.9c-6.5,288.3,81.6,544,264.5,766.9c84.5,103,187.3,184.1,302.5,250.2
		c101.6,58.3,208.6,102.6,323.4,126.8c45.1,9.5,90.8,17,136.6,22.8c51.2,6.4,102.9,8.7,154.6,7.9c140.7-2.2,274.7-33.9,402.9-91.2
		c126.1-56.4,242.4-128.1,344.4-221.8c72-66.1,132.9-141.7,185.4-224.1c69.4-109.2,118.7-227.1,150.9-352.1
		c11-42.8,19.7-86.2,29.4-129.4c1-4.3,2.2-8.6,3.4-12.9C2654.8,1614.6,2655.6,1614.8,2656.3,1614.9z"/>
	<path d="M2762.5,1586.1c0,10.9,0.5,21.8-0.1,32.7c-5.1,86.6-20.9,171.4-45.7,254.4c-32.6,108.9-80.3,210.8-141.7,306.4
		c-48.7,75.8-104.4,145.8-169,208.6c-76.2,74-161,137-251.3,192.7c-79.2,48.9-162.1,89.9-250.5,119.5
		c-68.4,22.9-138.5,38.7-210.1,47.8c-72.7,9.3-145.6,12.9-218.7,11.2c-62.6-1.5-124.8-7.7-186.6-18.4
		c-128.4-22.3-250.6-63.4-367.2-121.4c-106.7-53.1-201.7-122.7-287.6-205c-99.6-95.4-181.4-204.1-244.8-326.7
		c-54.1-104.5-93.9-214.1-117.4-329.5c-12.7-62.6-21.6-125.7-23.7-189.5c-1.4-44-1.6-88.2,0.5-132.2c1.9-39.8,6.4-79.6,11.8-119.1
		c10.4-76.3,29.1-150.8,54.4-223.6c33.1-95.4,78.2-185.1,131.8-270.5c48-76.5,102.6-147.8,166.7-211.3
		c91.8-90.9,196.3-164.4,311.1-223.4c88.4-45.4,180.6-80.8,277.3-104.3c48.5-11.8,97.6-20.3,147.1-26.1c59.4-7,119-9.9,178.7-8.3
		c113.8,3.1,224.9,22.1,333.3,57.1c114.4,36.9,222.1,87.9,322.6,153.9c60.4,39.7,116.4,85,168.2,135.7
		c51.6,50.4,98.7,104.6,139.2,164.2c14.9,21.9,27.5,45.3,41.1,68.1c1.5,2.6,2.1,5.7,3.2,8.6c-0.5,0.4-1.1,0.8-1.6,1.2
		c-2.7-2.8-5.6-5.5-8-8.6c-20.6-26.3-40.8-52.9-61.7-78.9c-60.5-75.3-127.6-144.1-203.1-204.5c-101.2-81-213.3-143.2-333.7-190.6
		c-83.3-32.8-169.1-56.7-257.6-70.7c-53.7-8.5-107.8-13.7-162.2-13.3c-46.7,0.4-93.6,1.2-140.1,5.4
		c-143.5,13-279.5,53.3-409.1,115.7c-107.1,51.6-205.6,116.1-294.3,195.5C595.1,650.1,536.4,719.9,485.1,796
		c-88,130.7-152.8,271.6-188.1,425.5c-11.2,48.9-20.3,98.2-24.1,148.2c-3.4,45.1-7.1,90.4-6.8,135.7
		c1.1,183.3,41.1,357.9,119.7,523.6c56,118,128.3,225,218.4,319.7c91.8,96.4,195.3,177.6,313.9,238.6
		c101.1,52,207.5,89.5,318.4,114.4c47.3,10.6,95.1,18.4,143.4,21.9c41.3,3,82.6,5.9,124,6.1c39.7,0.2,79.4-1.7,119-4.9
		c106.2-8.6,209.9-29.5,309.6-68.1c107.4-41.6,206-99.3,299.2-166.5c61-44,118.7-92,171.6-145.5c86.4-87.5,156.2-187.2,213.5-295.9
		c59.7-113.2,99.5-233.3,124.3-358.6c6.6-33.4,12-67,17.9-100.5c0.2-1.4,0.8-2.6,1.3-4C2761,1586,2761.8,1586,2762.5,1586.1z"/>
	<path d="M2724.6,1548.9c0,6.6,0.3,13.3,0,19.9c-8.3,153.8-46.9,300-112.3,439.1c-60,127.7-138.5,242.7-239.4,341.8
		c-70.7,69.5-148.8,129.5-232,183.1c-78.3,50.4-160.7,92.6-249.2,122c-66.9,22.2-135.2,37.7-205.2,46.8c-71,9.2-142.2,12.8-213.6,11
		c-93-2.4-184.8-14.6-274.8-38.4c-178.8-47.2-341.9-125.4-482.8-246.8c-120.9-104.1-219-226.2-291.7-368.4
		c-53.2-104-91.6-213.2-112.6-328c-7.6-41.3-12.2-83.2-16.9-125c-5.5-48.3-5.7-96.8-4.1-145.3c2.9-85.6,14.8-170,35.5-253.2
		c28.4-114.2,73.3-221.6,133.5-322.6c53.9-90.4,116.3-174.3,190.7-248.9c110.9-111.4,241.5-193,386.2-253
		c70.5-29.2,142.8-52.5,217.7-67.7c46.3-9.4,92.9-16.4,140-20.3c47.2-3.9,94.4-5.1,141.7-3.7c55.3,1.6,110.2,7.4,164.8,16.6
		c105.3,17.8,205.7,50.7,301.8,97.1c124,59.9,237.1,135.7,335.5,232.4c84.1,82.6,153.9,176,207.4,281.1
		c12.4,24.4,21.9,50.3,32.6,75.6c1.1,2.6,1.2,5.6,1.7,8.4c-0.6,0.3-1.2,0.6-1.9,1c-2.9-4.5-6-8.9-8.8-13.5
		c-20.2-34.2-39.7-68.8-60.6-102.5c-45.3-72.9-97.3-140.6-156.7-202.6c-100.4-104.8-216.9-187.4-346.4-251.9
		c-92.3-46-188.7-80.6-290.3-99.7c-46.4-8.8-93.1-16.1-140.3-18c-44.8-1.8-89.6-3.9-134.4-2.5c-103.7,3.2-204.9,22.2-303.7,53.7
		C1000.6,409.5,876,472.9,763.2,559c-92.5,70.6-169,156.3-235.6,251.2c-84.4,120.2-145.6,251.1-182.2,393.3
		c-13.7,53.3-23.1,107.4-29,162.2c-6.2,57.8-8.4,115.6-6.2,173.7c4.9,131.9,30.8,259.6,78,383c57.5,150.3,141.4,283.8,253,399.8
		c112.4,116.8,242.4,207.5,393,268.1c85.1,34.2,172.4,60.8,263,75.9c59.9,10,120.1,16.8,180.9,16.4c47-0.3,94.1-0.9,140.9-4.7
		c131.6-10.7,258.1-41.7,377.1-100.5c123.1-60.8,233.6-139.5,334-232.8c125.1-116.3,217.7-255.2,285.3-411.4
		c40.7-94.1,69.5-191.9,88.3-292.7c5.5-29.4,11.5-58.7,17.2-88c0.3-1.3,0.8-2.5,1.3-3.8C2722.9,1548.8,2723.7,1548.8,2724.6,1548.9z
		"/>
</g>
</svg>
